<svg id="Layer_1" data-name="Layer 1" xmlns="http://www.w3.org/2000/svg" viewBox="0 0 435.32 105.18"><defs><style>.cls-1{fill:#ff6b00;}.cls-2{fill:#fff;}</style></defs><title>Logo GONTOR</title><path class="cls-1" d="M194,134.31a1.41,1.41,0,0,1-1.41,1.41H94.89a1.41,1.41,0,0,1-1.42-1.41V33.62H90.13V137.1a1.41,1.41,0,0,0,1.42,1.42H195.42a1.4,1.4,0,0,0,1.4-1.42V68.84H194Z" transform="translate(-90.13 -33.62)"/><path class="cls-1" d="M127.41,68.32h0l69.41-11.62V53.87l-71.18,12h0A3.17,3.17,0,0,0,122.83,69h0v36a1.43,1.43,0,0,0,1.42,1.42h39a1.42,1.42,0,0,0,1.41-1.42V68.84h-2.79v33.32a1.43,1.43,0,0,1-1.42,1.42H127a1.42,1.42,0,0,1-1.41-1.42V70.26A1.94,1.94,0,0,1,127.41,68.32Z" transform="translate(-90.13 -33.62)"/><path class="cls-1" d="M121.59,67.17h0a1.78,1.78,0,0,1,1.16-1.65h0l74.07-25.9V36.44L121.41,63h0a3.77,3.77,0,0,0-2.61,3.58V109a1.42,1.42,0,0,0,1.42,1.41h47a1.41,1.41,0,0,0,1.42-1.41V68.84h-2.8v37.34a1.41,1.41,0,0,1-1.41,1.41H123a1.41,1.41,0,0,1-1.41-1.41v-39Z" transform="translate(-90.13 -33.62)"/><path class="cls-1" d="M169.88,68.84V110.2a1.41,1.41,0,0,1-1.41,1.41H119a1.41,1.41,0,0,1-1.41-1.41V63.6a1.66,1.66,0,0,1,1-1.45L169,33.62h-5.72l-46.21,26.3h0a4.11,4.11,0,0,0-2.3,3.68,2.64,2.64,0,0,0,0,.29V113a1.41,1.41,0,0,0,1.41,1.41h55.07a1.42,1.42,0,0,0,1.42-1.41V68.84Z" transform="translate(-90.13 -33.62)"/><path class="cls-1" d="M173.9,68.7v45.37a1.42,1.42,0,0,1-1.41,1.42H115a1.43,1.43,0,0,1-1.42-1.42V61.93h0c0,1.48,0,1,0,1V60.66a2.21,2.21,0,0,1,.84-1.76l30.35-25.28h-4.61L112.36,56.77h0a4.44,4.44,0,0,0-1.58,3h0v0a2.68,2.68,0,0,0,0,.4v56.7a1.42,1.42,0,0,0,1.41,1.42h63.11a1.43,1.43,0,0,0,1.42-1.42V68.7Z" transform="translate(-90.13 -33.62)"/><path class="cls-1" d="M177.92,68.84v49.39a1.41,1.41,0,0,1-1.41,1.42H111a1.41,1.41,0,0,1-1.41-1.42V58.09a5.34,5.34,0,0,1,1.21-3.39h0l17.45-21.07h-4L108.05,53.33h0A5.72,5.72,0,0,0,106.74,57V121a1.42,1.42,0,0,0,1.42,1.41H179.3a1.42,1.42,0,0,0,1.42-1.41V68.84Z" transform="translate(-90.13 -33.62)"/><path class="cls-1" d="M181.94,68.84v53.41a1.42,1.42,0,0,1-1.42,1.42H106.93a1.42,1.42,0,0,1-1.41-1.42V54.39a10.2,10.2,0,0,1,1.33-5h0l8.8-15.73h-3.29L104,48.88c0,.08-.1.17-.14.26l0,.07h0a10,10,0,0,0-1.12,4.36h0v71.48a1.41,1.41,0,0,0,1.41,1.42h79.18a1.42,1.42,0,0,0,1.41-1.42V68.84Z" transform="translate(-90.13 -33.62)"/><path class="cls-1" d="M186,68.84v57.44a1.41,1.41,0,0,1-1.42,1.4H102.91a1.4,1.4,0,0,1-1.41-1.4V51l0-1.21a15.17,15.17,0,0,1,.6-4h0v0c.07-.26.16-.52.25-.78l3.65-11.34h-3.12L99.45,44.71c0,.08,0,.17-.08.26l0,.06h0a15.18,15.18,0,0,0-.64,4.39c0,.3,0,.92,0,.92v78.72a1.42,1.42,0,0,0,1.42,1.41h87.22a1.41,1.41,0,0,0,1.41-1.41V68.84Z" transform="translate(-90.13 -33.62)"/><path class="cls-1" d="M190,68.84v61.45a1.42,1.42,0,0,1-1.41,1.42H98.9a1.42,1.42,0,0,1-1.41-1.42V43.69L98.7,33.62H95.41l-.6,8h0a15.39,15.39,0,0,0-.12,1.93v.15h0v89.36a1.41,1.41,0,0,0,1.41,1.41h95.26a1.42,1.42,0,0,0,1.42-1.41V68.84Z" transform="translate(-90.13 -33.62)"/><polygon class="cls-2" points="294.85 93.63 294.85 93.61 294.85 93.61 294.85 93.63"/><path class="cls-2" d="M388,127.26V91.74h34.68v-3H388a8.58,8.58,0,0,1-8.58-8.57V68.67h-3V79.89h0v47.37h0A11.56,11.56,0,0,0,388,138.81H411.1a11.56,11.56,0,0,0,11.53-11.55h0V103.74h-3v23h0c0,.18,0,.36,0,.54a8.57,8.57,0,0,1-8.57,8.57H388a8.58,8.58,0,0,1-8.58-8.57h0V87.93a11.66,11.66,0,0,0,1.3,1.23v38.1a7.27,7.27,0,0,0,7.25,7.27H411.1a7.27,7.27,0,0,0,7.25-7.27V103.74h-3v23.52h0a4.3,4.3,0,0,1-4.3,4.29H388a4.29,4.29,0,0,1-4.27-4.29h0V90.91a11,11,0,0,0,1.3.43v35.9a3,3,0,0,0,3,3,1.93,1.93,0,0,0,.34,0h22.41a2,2,0,0,0,.35,0,3,3,0,0,0,3-3V103.74h-3v23.52H388Z" transform="translate(-90.13 -33.62)"/><path class="cls-2" d="M388,80.19h0V68.67h-3V80.19h0a3,3,0,0,0,3,3h34.65v-3H388Z" transform="translate(-90.13 -33.62)"/><path class="cls-2" d="M383.68,80.19V68.67h-3V80.19h0A7.28,7.28,0,0,0,388,87.46h34.65v-3H388A4.3,4.3,0,0,1,383.68,80.19Z" transform="translate(-90.13 -33.62)"/><path class="cls-2" d="M268.39,68.67H233.74a11.55,11.55,0,0,0-11.55,11.55v47h0a11.56,11.56,0,0,0,11.53,11.55h23.15a11.55,11.55,0,0,0,11.52-11.55h0V103.74h-3v23h0a4.87,4.87,0,0,1,0,.54,8.57,8.57,0,0,1-8.57,8.57H233.74a8.57,8.57,0,0,1-8.57-8.57h0v-47a8.58,8.58,0,0,1,8.57-8.58h34.65Z" transform="translate(-90.13 -33.62)"/><path class="cls-2" d="M233.72,127.26v-47h0v0h34.65v-3H233.74a3,3,0,0,0-3,3h0v47h0a3,3,0,0,0,3,3,2,2,0,0,0,.35,0h22.4a2.16,2.16,0,0,0,.36,0,3,3,0,0,0,3-3V103.74h-3v20.52h0v3H233.72Z" transform="translate(-90.13 -33.62)"/><path class="cls-2" d="M229.44,80.22a4.31,4.31,0,0,1,4.3-4.3h34.65V73H233.74a7.28,7.28,0,0,0-7.27,7.28h0v47a7.27,7.27,0,0,0,7.25,7.27h23.15a7.27,7.27,0,0,0,7.25-7.27V103.74h-3v23.52h0a4.3,4.3,0,0,1-4.3,4.29H233.72a4.29,4.29,0,0,1-4.28-4.29h0Z" transform="translate(-90.13 -33.62)"/><polygon class="cls-2" points="192.03 93.63 192.03 93.61 192.03 93.61 192.03 93.63"/><path class="cls-2" d="M315.53,99.1V80.23h0A7.26,7.26,0,0,0,308.28,73H285.13a7.26,7.26,0,0,0-7.25,7.27h0v47a7.27,7.27,0,0,0,7.25,7.27h23.15a7.27,7.27,0,0,0,7.25-7.27V99.1Zm-3,22.29v5.87h0a4.29,4.29,0,0,1-4.3,4.29H285.13a4.29,4.29,0,0,1-4.27-4.29h0v-47h0a4.3,4.3,0,0,1,4.3-4.3h23.12a4.3,4.3,0,0,1,4.27,4.3h0v41.17Z" transform="translate(-90.13 -33.62)"/><polygon class="cls-2" points="221.13 46.6 221.13 46.62 221.13 46.62 221.13 46.6"/><path class="cls-2" d="M311.26,99.1V80.24a3,3,0,0,0-3-3H285.16a3,3,0,0,0-3,3v47a3,3,0,0,0,3,3,1.93,1.93,0,0,0,.34,0h22.41a1.93,1.93,0,0,0,.34,0,3,3,0,0,0,3-3V99.1Zm-3,25.16h0v3H285.13v-44h0v-3h23.15v44Z" transform="translate(-90.13 -33.62)"/><path class="cls-2" d="M308.28,68.67H285.13A11.55,11.55,0,0,0,273.6,80.22h0v47h0a11.56,11.56,0,0,0,11.53,11.55h23.15a11.56,11.56,0,0,0,11.53-11.55h0v-47h0A11.55,11.55,0,0,0,308.28,68.67Zm8.55,50.47v7.58h0c0,.18,0,.36,0,.54a8.58,8.58,0,0,1-8.58,8.57H285.16a8.58,8.58,0,0,1-8.58-8.57h0V80.75h0c0-.17,0-.35,0-.53a8.58,8.58,0,0,1,8.58-8.58h22.68v0l.41,0a8.58,8.58,0,0,1,8.58,8.58h0v38.92Z" transform="translate(-90.13 -33.62)"/><polygon class="cls-2" points="346.25 93.63 346.25 93.61 346.25 93.61 346.25 93.63"/><path class="cls-2" d="M469.77,99.1V80.23h0A7.27,7.27,0,0,0,462.51,73H439.37a7.27,7.27,0,0,0-7.26,7.27h0v47a7.27,7.27,0,0,0,7.26,7.27h23.14a7.27,7.27,0,0,0,7.26-7.27V99.1Zm-3,22.29v5.87h0a4.3,4.3,0,0,1-4.3,4.29H439.37a4.29,4.29,0,0,1-4.28-4.29h0v-47h0a4.31,4.31,0,0,1,4.3-4.3h23.12a4.31,4.31,0,0,1,4.28,4.3h0v41.17Z" transform="translate(-90.13 -33.62)"/><polygon class="cls-2" points="375.36 46.6 375.36 46.62 375.36 46.62 375.36 46.6"/><path class="cls-2" d="M465.49,99.1V80.24a3,3,0,0,0-3-3h-23.1a3,3,0,0,0-3,3v47a3,3,0,0,0,3,3,2,2,0,0,0,.35,0h22.4a2,2,0,0,0,.35,0,3,3,0,0,0,3-3V99.1Zm-3,25.16h0v3H439.37v-44h0v-3h23.14v44Z" transform="translate(-90.13 -33.62)"/><path class="cls-2" d="M462.51,68.67H439.37a11.54,11.54,0,0,0-11.53,11.55h0v47h0a11.55,11.55,0,0,0,11.53,11.55h23.14A11.56,11.56,0,0,0,474,127.26h0v-47h0A11.55,11.55,0,0,0,462.51,68.67Zm8.55,50.47v7.58h0c0,.18,0,.36,0,.54a8.57,8.57,0,0,1-8.57,8.57h-23.1a8.58,8.58,0,0,1-8.58-8.57h0V80.75h0c0-.17,0-.35,0-.53a8.58,8.58,0,0,1,8.58-8.58h22.69v0l.41,0a8.57,8.57,0,0,1,8.57,8.58h0v38.92Z" transform="translate(-90.13 -33.62)"/><path class="cls-2" d="M359.69,80.22v58.59h3V80.24a3,3,0,0,0-3-3h-26.1v61.57h3V83.22h0v-3h23.14Z" transform="translate(-90.13 -33.62)"/><path class="cls-2" d="M336.56,73h0s-7.26,0-7.26,0v65.86h3V75.92h27.42a4.3,4.3,0,0,1,4.28,4.3h0v58.59h3V80.23h0A7.26,7.26,0,0,0,359.69,73H336.56Z" transform="translate(-90.13 -33.62)"/><path class="cls-2" d="M328,71.65h31.24v0l.42,0a8.58,8.58,0,0,1,8.57,8.58h0v58.59h3V80.22h0a11.55,11.55,0,0,0-11.53-11.55H325v70.14h3Z" transform="translate(-90.13 -33.62)"/><polygon class="cls-2" points="272.53 46.6 272.53 46.62 272.53 46.62 272.53 46.6"/><path class="cls-2" d="M513.93,73H490.78a7.27,7.27,0,0,0-7.26,7.27h0v58.58h3V80.22h0a4.3,4.3,0,0,1,4.3-4.3h23.13a4.3,4.3,0,0,1,4.27,4.3h0v23.52h3V80.23h0A7.27,7.27,0,0,0,513.93,73Z" transform="translate(-90.13 -33.62)"/><path class="cls-2" d="M513.93,68.67H487.8v.4a11,11,0,0,0-1.3.43v-.83h-3v2.58a11.61,11.61,0,0,0-1.3,1.23V68.67h-3V80.22h0v58.59h3V80.75h0c0-.17,0-.35,0-.53a8.58,8.58,0,0,1,8.58-8.58h22.69v0l.41,0a8.58,8.58,0,0,1,8.58,8.58h0v23.52h3V80.22h0A11.55,11.55,0,0,0,513.93,68.67Z" transform="translate(-90.13 -33.62)"/><polygon class="cls-2" points="426.77 46.62 426.77 46.62 426.77 46.6 426.77 46.62"/><path class="cls-2" d="M513.9,77.24H490.8a3,3,0,0,0-3,3v58.59h3V83.22h0v-3h23.15v23.52h3V80.24A3,3,0,0,0,513.9,77.24Z" transform="translate(-90.13 -33.62)"/></svg>