{
    "asset" : {
        "generator" : "Khronos glTF Blender I/O v1.4.40",
        "version" : "2.0"
    },
    "scene" : 0,
    "scenes" : [
        {
            "extras" : {
                "glTF2ExportSettings" : {
                    "export_apply" : 1,
                    "export_extras" : 1,
                    "export_format" : "GLTF_EMBEDDED",
                    "use_selection" : 1
                }
            },
            "name" : "Scene",
            "nodes" : [
                0,
                1,
                2,
                3,
                4,
                5,
                6
            ]
        }
    ],
    "nodes" : [
        {
            "mesh" : 0,
            "name" : "Cube.017"
        },
        {
            "mesh" : 1,
            "name" : "Cube.018",
            "scale" : [
                0.020070089027285576,
                0.020070089027285576,
                0.020070089027285576
            ],
            "translation" : [
                0.4677943289279938,
                0.5019627809524536,
                0.6011430025100708
            ]
        },
        {
            "mesh" : 2,
            "name" : "Cube.019",
            "scale" : [
                0.020070089027285576,
                0.020070089027285576,
                0.020070089027285576
            ],
            "translation" : [
                0.4709462821483612,
                0.7190921902656555,
                0.6011430025100708
            ]
        },
        {
            "mesh" : 3,
            "name" : "Cube.020",
            "scale" : [
                0.4304426312446594,
                0.46423566341400146,
                0.4304426312446594
            ],
            "translation" : [
                -0.10859672725200653,
                -0.4093371033668518,
                0.5328350067138672
            ]
        },
        {
            "mesh" : 4,
            "name" : "Cube.022",
            "scale" : [
                0.4304426312446594,
                0.46423566341400146,
                0.4304426312446594
            ],
            "translation" : [
                -3.220885992050171e-05,
                -0.4093371033668518,
                0.5328350067138672
            ]
        },
        {
            "mesh" : 5,
            "name" : "Cube.023",
            "scale" : [
                0.4304426312446594,
                0.46423566341400146,
                0.4304426312446594
            ],
            "translation" : [
                0.10853230953216553,
                -0.4093371033668518,
                0.5328350067138672
            ]
        },
        {
            "mesh" : 6,
            "name" : "Cube.024",
            "translation" : [
                0.001911592436954379,
                0.34371596574783325,
                0.5742959380149841
            ]
        }
    ],
    "meshes" : [
        {
            "name" : "Cube.033",
            "primitives" : [
                {
                    "attributes" : {
                        "POSITION" : 0,
                        "NORMAL" : 1,
                        "TEXCOORD_0" : 2
                    },
                    "indices" : 3
                }
            ]
        },
        {
            "name" : "Cube.034",
            "primitives" : [
                {
                    "attributes" : {
                        "POSITION" : 4,
                        "NORMAL" : 5,
                        "TEXCOORD_0" : 6
                    },
                    "indices" : 7
                }
            ]
        },
        {
            "name" : "Cube.035",
            "primitives" : [
                {
                    "attributes" : {
                        "POSITION" : 8,
                        "NORMAL" : 9,
                        "TEXCOORD_0" : 10
                    },
                    "indices" : 7
                }
            ]
        },
        {
            "name" : "Cube.036",
            "primitives" : [
                {
                    "attributes" : {
                        "POSITION" : 11,
                        "NORMAL" : 12,
                        "TEXCOORD_0" : 13
                    },
                    "indices" : 14
                }
            ]
        },
        {
            "name" : "Cube.037",
            "primitives" : [
                {
                    "attributes" : {
                        "POSITION" : 15,
                        "NORMAL" : 16,
                        "TEXCOORD_0" : 17
                    },
                    "indices" : 14
                }
            ]
        },
        {
            "name" : "Cube.038",
            "primitives" : [
                {
                    "attributes" : {
                        "POSITION" : 18,
                        "NORMAL" : 19,
                        "TEXCOORD_0" : 20
                    },
                    "indices" : 14
                }
            ]
        },
        {
            "name" : "Cube.039",
            "primitives" : [
                {
                    "attributes" : {
                        "POSITION" : 21,
                        "NORMAL" : 22,
                        "TEXCOORD_0" : 23
                    },
                    "indices" : 24
                }
            ]
        }
    ],
    "accessors" : [
        {
            "bufferView" : 0,
            "componentType" : 5126,
            "count" : 9343,
            "max" : [
                0.5120169520378113,
                1,
                0.5807817578315735
            ],
            "min" : [
                -0.5120169520378113,
                -1,
                -0.5713109970092773
            ],
            "type" : "VEC3"
        },
        {
            "bufferView" : 1,
            "componentType" : 5126,
            "count" : 9343,
            "type" : "VEC3"
        },
        {
            "bufferView" : 2,
            "componentType" : 5126,
            "count" : 9343,
            "type" : "VEC2"
        },
        {
            "bufferView" : 3,
            "componentType" : 5123,
            "count" : 16608,
            "type" : "SCALAR"
        },
        {
            "bufferView" : 4,
            "componentType" : 5126,
            "count" : 396,
            "max" : [
                0.809982419013977,
                2.260669469833374,
                0.9332454800605774
            ],
            "min" : [
                -0.809982419013977,
                -1.7341524362564087,
                -1.0608688592910767
            ],
            "type" : "VEC3"
        },
        {
            "bufferView" : 5,
            "componentType" : 5126,
            "count" : 396,
            "type" : "VEC3"
        },
        {
            "bufferView" : 6,
            "componentType" : 5126,
            "count" : 396,
            "type" : "VEC2"
        },
        {
            "bufferView" : 7,
            "componentType" : 5123,
            "count" : 1332,
            "type" : "SCALAR"
        },
        {
            "bufferView" : 8,
            "componentType" : 5126,
            "count" : 396,
            "max" : [
                0.809982419013977,
                2.260669469833374,
                0.9332454800605774
            ],
            "min" : [
                -0.809982419013977,
                -1.7341524362564087,
                -1.0608688592910767
            ],
            "type" : "VEC3"
        },
        {
            "bufferView" : 9,
            "componentType" : 5126,
            "count" : 396,
            "type" : "VEC3"
        },
        {
            "bufferView" : 10,
            "componentType" : 5126,
            "count" : 396,
            "type" : "VEC2"
        },
        {
            "bufferView" : 11,
            "componentType" : 5126,
            "count" : 24,
            "max" : [
                0.07727862894535065,
                1,
                0.03373491019010544
            ],
            "min" : [
                -0.07727837562561035,
                -0.9999998807907104,
                -0.033735230565071106
            ],
            "type" : "VEC3"
        },
        {
            "bufferView" : 12,
            "componentType" : 5126,
            "count" : 24,
            "type" : "VEC3"
        },
        {
            "bufferView" : 13,
            "componentType" : 5126,
            "count" : 24,
            "type" : "VEC2"
        },
        {
            "bufferView" : 14,
            "componentType" : 5123,
            "count" : 36,
            "type" : "SCALAR"
        },
        {
            "bufferView" : 15,
            "componentType" : 5126,
            "count" : 24,
            "max" : [
                0.07727862894535065,
                1,
                0.03373491019010544
            ],
            "min" : [
                -0.07727836817502975,
                -0.9999998807907104,
                -0.033735230565071106
            ],
            "type" : "VEC3"
        },
        {
            "bufferView" : 16,
            "componentType" : 5126,
            "count" : 24,
            "type" : "VEC3"
        },
        {
            "bufferView" : 17,
            "componentType" : 5126,
            "count" : 24,
            "type" : "VEC2"
        },
        {
            "bufferView" : 18,
            "componentType" : 5126,
            "count" : 24,
            "max" : [
                0.07727861404418945,
                1,
                0.03373491019010544
            ],
            "min" : [
                -0.07727837562561035,
                -0.9999998807907104,
                -0.033735230565071106
            ],
            "type" : "VEC3"
        },
        {
            "bufferView" : 19,
            "componentType" : 5126,
            "count" : 24,
            "type" : "VEC3"
        },
        {
            "bufferView" : 20,
            "componentType" : 5126,
            "count" : 24,
            "type" : "VEC2"
        },
        {
            "bufferView" : 21,
            "componentType" : 5126,
            "count" : 7920,
            "max" : [
                0.43169301748275757,
                0.6345247030258179,
                0.009337394498288631
            ],
            "min" : [
                -0.4353960156440735,
                -1.3303027153015137,
                -0.009337394498288631
            ],
            "type" : "VEC3"
        },
        {
            "bufferView" : 22,
            "componentType" : 5126,
            "count" : 7920,
            "type" : "VEC3"
        },
        {
            "bufferView" : 23,
            "componentType" : 5126,
            "count" : 7920,
            "type" : "VEC2"
        },
        {
            "bufferView" : 24,
            "componentType" : 5123,
            "count" : 11880,
            "type" : "SCALAR"
        }
    ],
    "bufferViews" : [
        {
            "buffer" : 0,
            "byteLength" : 112116,
            "byteOffset" : 0
        },
        {
            "buffer" : 0,
            "byteLength" : 112116,
            "byteOffset" : 112116
        },
        {
            "buffer" : 0,
            "byteLength" : 74744,
            "byteOffset" : 224232
        },
        {
            "buffer" : 0,
            "byteLength" : 33216,
            "byteOffset" : 298976
        },
        {
            "buffer" : 0,
            "byteLength" : 4752,
            "byteOffset" : 332192
        },
        {
            "buffer" : 0,
            "byteLength" : 4752,
            "byteOffset" : 336944
        },
        {
            "buffer" : 0,
            "byteLength" : 3168,
            "byteOffset" : 341696
        },
        {
            "buffer" : 0,
            "byteLength" : 2664,
            "byteOffset" : 344864
        },
        {
            "buffer" : 0,
            "byteLength" : 4752,
            "byteOffset" : 347528
        },
        {
            "buffer" : 0,
            "byteLength" : 4752,
            "byteOffset" : 352280
        },
        {
            "buffer" : 0,
            "byteLength" : 3168,
            "byteOffset" : 357032
        },
        {
            "buffer" : 0,
            "byteLength" : 288,
            "byteOffset" : 360200
        },
        {
            "buffer" : 0,
            "byteLength" : 288,
            "byteOffset" : 360488
        },
        {
            "buffer" : 0,
            "byteLength" : 192,
            "byteOffset" : 360776
        },
        {
            "buffer" : 0,
            "byteLength" : 72,
            "byteOffset" : 360968
        },
        {
            "buffer" : 0,
            "byteLength" : 288,
            "byteOffset" : 361040
        },
        {
            "buffer" : 0,
            "byteLength" : 288,
            "byteOffset" : 361328
        },
        {
            "buffer" : 0,
            "byteLength" : 192,
            "byteOffset" : 361616
        },
        {
            "buffer" : 0,
            "byteLength" : 288,
            "byteOffset" : 361808
        },
        {
            "buffer" : 0,
            "byteLength" : 288,
            "byteOffset" : 362096
        },
        {
            "buffer" : 0,
            "byteLength" : 192,
            "byteOffset" : 362384
        },
        {
            "buffer" : 0,
            "byteLength" : 95040,
            "byteOffset" : 362576
        },
        {
            "buffer" : 0,
            "byteLength" : 95040,
            "byteOffset" : 457616
        },
        {
            "buffer" : 0,
            "byteLength" : 63360,
            "byteOffset" : 552656
        },
        {
            "buffer" : 0,
            "byteLength" : 23760,
            "byteOffset" : 616016
        }
    ],
    "buffers" : [
        {
            "byteLength" : 639776,
            "uri" : "data:application/octet-stream;base64,"
        }
    ]
}
